<?xml version="1.0" encoding="UTF-8"?>
<svg width="631px" height="615px" viewBox="0 0 631 615" version="1.1" xmlns="http://www.w3.org/2000/svg" xmlns:xlink="http://www.w3.org/1999/xlink">
    <!-- Generator: Sketch 46.2 (44496) - http://www.bohemiancoding.com/sketch -->
    <title>macbook</title>
    <desc>Created with Sketch.</desc>
    <defs>
        <linearGradient x1="-1.11022302e-14%" y1="2.22044605e-14%" x2="105.276645%" y2="90.385435%" id="linearGradient-1">
            <stop stop-color="#E3DFFF" offset="0%"></stop>
            <stop stop-color="#E7DCFF" offset="100%"></stop>
        </linearGradient>
        <path d="M15.8636593,141.424165 L371.375838,1.20391084 C381.4076,-2.60847349 387.226022,3.81238433 387.226022,14.2462783 L386.824752,311.211085 C386.824752,323.450713 380.605059,336.292429 369.770756,340.506117 L19.2609835,487.583891 C10.1852729,491.522692 2.20698769,485.978677 2.20698769,475.545096 L0.118368269,164.736033 C0.0529952791,155.316097 7.10390756,144.878424 15.8636593,141.424165 Z M17,169.456265 L18.605082,453.378572 L371.522478,305.49819 L371.923748,29 L17,169.456265 Z" id="path-2"></path>
        <filter x="-3.1%" y="-2.5%" width="106.2%" height="104.9%" filterUnits="objectBoundingBox" id="filter-4">
            <feGaussianBlur stdDeviation="8" in="SourceAlpha" result="shadowBlurInner1"></feGaussianBlur>
            <feOffset dx="0" dy="-8" in="shadowBlurInner1" result="shadowOffsetInner1"></feOffset>
            <feComposite in="shadowOffsetInner1" in2="SourceAlpha" operator="arithmetic" k2="-1" k3="1" result="shadowInnerInner1"></feComposite>
            <feColorMatrix values="0 0 0 0 0   0 0 0 0 0   0 0 0 0 0  0 0 0 0.103147645 0" type="matrix" in="shadowInnerInner1" result="shadowMatrixInner1"></feColorMatrix>
            <feOffset dx="0" dy="1" in="SourceAlpha" result="shadowOffsetInner2"></feOffset>
            <feComposite in="shadowOffsetInner2" in2="SourceAlpha" operator="arithmetic" k2="-1" k3="1" result="shadowInnerInner2"></feComposite>
            <feColorMatrix values="0 0 0 0 1   0 0 0 0 1   0 0 0 0 1  0 0 0 0.5 0" type="matrix" in="shadowInnerInner2" result="shadowMatrixInner2"></feColorMatrix>
            <feMerge>
                <feMergeNode in="shadowMatrixInner1"></feMergeNode>
                <feMergeNode in="shadowMatrixInner2"></feMergeNode>
            </feMerge>
        </filter>
        <linearGradient x1="101.999998%" y1="100.999999%" x2="0%" y2="6.24500451e-15%" id="linearGradient-5">
            <stop stop-color="#DED9FF" offset="0%"></stop>
            <stop stop-color="#FFFFFF" offset="100%"></stop>
        </linearGradient>
        <path d="M331.610022,14.1259318 L359.168862,2.47959408 C367.129474,-0.88455271 379.876235,-0.532149544 387.639222,3.26654851 L608.721486,111.347276 C612.991615,113.37101 616.150837,115.596208 616.150837,118.986522 C616.196293,120.630534 616.150837,119.977636 616.150837,121.795647 C616.150837,123.613658 612.224812,126.517914 608.590742,128.119309 L471.984545,188.439283 C470.045131,188.803472 468.907818,189.0604 463.668051,191.421824 L405.283194,217.105255 C403.011486,218.154379 401.79581,218.819531 401.080119,219.338953 C400.681069,219.62857 400.437458,219.87288 400.252899,220.113183 L258.016925,282.919048 C247.383257,287.333388 236.147683,287.132736 226.918462,282.718396 L7.02223357,173.965117 C3.02628104,172.358403 -8.41582498e-10,169.007211 -5.56874671e-18,166.741652 C8.41582782e-10,164.476093 1.1249228e-09,162.201908 -5.56874671e-18,158.514928 C-1.12492319e-09,154.827947 3.36571849,152.841641 7.84931636,150.946877 L36.352472,138.901473 L39.5251432,140.456265 L334.659588,15.650841 L331.610022,14.1259318 Z" id="path-6"></path>
        <filter x="-0.1%" y="-0.2%" width="100.2%" height="100.3%" filterUnits="objectBoundingBox" id="filter-8">
            <feOffset dx="0" dy="1" in="SourceAlpha" result="shadowOffsetInner1"></feOffset>
            <feComposite in="shadowOffsetInner1" in2="SourceAlpha" operator="arithmetic" k2="-1" k3="1" result="shadowInnerInner1"></feComposite>
            <feColorMatrix values="0 0 0 0 1   0 0 0 0 1   0 0 0 0 1  0 0 0 0.5 0" type="matrix" in="shadowInnerInner1"></feColorMatrix>
        </filter>
        <path d="M3.48492042,68.1747458 L150.858688,4.0435141 L150.858688,4.0435141 C151.506893,3.76144102 152.246486,3.77948731 152.880162,4.09283869 L237.771813,46.0715548 L237.771813,46.0715548 C238.959965,46.6590931 239.446859,48.0985744 238.85932,49.2867263 C238.610307,49.7902952 238.192534,50.1905556 237.67877,50.4177903 L90.8675863,115.351456 L90.8675863,115.351456 C89.9912844,115.739039 88.9874144,115.713541 88.1319183,115.281972 L3.36160005,72.5181931 L3.36160005,72.5181931 C2.17817347,71.9211942 1.70277996,70.4778741 2.29977893,69.2944475 C2.55206074,68.7943512 2.97131553,68.3982463 3.48492042,68.1747458 Z" id="path-9"></path>
        <path d="M1.84910809,2.9383309 L9.28788883,2.76724099 C10.4511904,2.76724099 11.496294,3.67322469 12.0394395,4.77375906 C12.5584727,5.82543664 12.5186371,6.21769789 11.1183962,6.45985915 L3.6341266,6.61898366 C2.47082507,6.61898366 0.791164171,5.74776082 0.434747893,4.63934783 C0.0784099641,3.5311785 0.485722991,3.00725113 1.84910809,2.9383309 Z" id="path-11"></path>
    </defs>
    <g id="Web" stroke="none" stroke-width="1" fill="none" fill-rule="evenodd">
        <g id="Desktop-HD" transform="translate(-429.000000, -3780.000000)">
            <g id="macbook" transform="translate(429.000000, 3780.000000)">
                <g id="Destop">
                    <mask id="mask-3" fill="white">
                        <use xlink:href="#path-2"></use>
                    </mask>
                    <g id="Cover-Mask">
                        <use fill="url(#linearGradient-1)" fill-rule="evenodd" xlink:href="#path-2"></use>
                        <use fill="black" fill-opacity="1" filter="url(#filter-4)" xlink:href="#path-2"></use>
                    </g>
                    <g id="Camera-" mask="url(#mask-3)" fill-opacity="0.100288723" fill="#000000">
                        <g transform="translate(197.244382, 87.312070) rotate(-340.000000) translate(-197.244382, -87.312070) translate(195.244382, 83.312070)" id="Border">
                            <ellipse cx="1.60508196" cy="2.47799499" rx="1.60508196" ry="2.45606584"></ellipse>
                        </g>
                    </g>
                </g>
                <g id="Keyboard" transform="translate(14.044467, 328.065705)">
                    <mask id="mask-7" fill="white">
                        <use xlink:href="#path-6"></use>
                    </mask>
                    <g id="Board-Mask">
                        <use fill="url(#linearGradient-5)" fill-rule="evenodd" xlink:href="#path-6"></use>
                        <use fill="black" fill-opacity="1" filter="url(#filter-8)" xlink:href="#path-6"></use>
                    </g>
                    <g id="Board" mask="url(#mask-7)">
                        <g transform="translate(263.461134, 116.908169)" id="Pack">
                            <g transform="translate(1.578024, 0.486175)">
                                <mask id="mask-10" fill="white">
                                    <use xlink:href="#path-9"></use>
                                </mask>
                                <use id="Mask" fill-opacity="0.104053442" fill="#000000" xlink:href="#path-9"></use>
                            </g>
                        </g>
                    </g>
                    <g id="Keys" mask="url(#mask-7)" fill-opacity="0.1" fill="#000000">
                        <g transform="translate(21.467971, 10.433894)" id="bottom">
                            <path d="M106.136044,213.894826 C106.041828,213.815877 105.734774,213.682389 105.734774,213.493523 C105.734774,213.041664 105.734774,212.691291 105.734774,212.490264 C105.734774,212.289237 105.922545,211.777758 106.576234,211.49681 L126.16065,203.049823 C127.179414,202.611971 128.807078,202.66524 129.792662,203.167034 L147.083976,211.981555 C147.469109,212.17764 147.868175,212.600534 147.868175,212.891567 L147.868175,213.894826 C147.868175,214.173515 147.729422,214.346638 147.4228,214.476278 L127.24685,223.145314 C126.225221,223.577257 124.600133,223.514178 123.614587,223.003112 L106.136044,213.894826 Z" opacity="0.752740205"></path>
                            <path d="M132.619897,202.457673 C132.52568,202.378724 132.218626,202.245236 132.218626,202.05637 C132.218626,201.604511 132.218626,201.254138 132.218626,201.053111 C132.218626,200.852084 132.406397,200.340605 133.060087,200.059657 L152.644502,191.61267 C153.663267,191.174818 155.29093,191.228087 156.276515,191.729881 L173.567828,200.544402 C173.952961,200.740487 174.352028,201.163381 174.352028,201.454414 L174.352028,202.457673 C174.352028,202.736362 174.213274,202.909485 173.906653,203.039125 L153.730702,211.708161 C152.709074,212.140104 151.083985,212.077025 150.09844,211.565959 L132.619897,202.457673 Z" opacity="0.752740205"></path>
                            <path d="M159.103749,190.819869 C159.009532,190.740919 158.702479,190.607431 158.702479,190.418565 C158.702479,189.966706 158.702479,189.616333 158.702479,189.415306 C158.702479,189.214279 158.890249,188.7028 159.543939,188.421852 L179.128354,179.974866 C180.147119,179.537013 181.774783,179.590282 182.760367,180.092076 L200.05168,188.906597 C200.436814,189.102682 200.83588,189.525576 200.83588,189.81661 L200.83588,190.819869 C200.83588,191.098557 200.697126,191.271681 200.390505,191.40132 L180.214555,200.070356 C179.192926,200.502299 177.567837,200.43922 176.582292,199.928154 L159.103749,190.819869 Z" opacity="0.752740205"></path>
                            <path d="M185.587601,179.583367 C185.493385,179.504418 185.186331,179.37093 185.186331,179.182064 C185.186331,178.730205 185.186331,178.379832 185.186331,178.178805 C185.186331,177.977778 185.374102,177.466299 186.027791,177.185351 L212.63444,166.129891 C213.653205,165.692038 215.280868,165.745308 216.266453,166.247101 L232.95586,174.860971 C233.340994,175.057055 233.74006,175.479949 233.74006,175.770983 L233.74006,176.774242 C233.74006,177.052931 233.601306,177.226054 233.294685,177.355693 L206.698407,188.833855 C205.676778,189.265798 204.051689,189.202719 203.066144,188.691653 L185.587601,179.583367 Z" opacity="0.752740205"></path>
                            <path d="M218.291146,165.537741 C218.19693,165.458792 217.889876,165.325304 217.889876,165.136437 C217.889876,164.684578 217.889876,164.334205 217.889876,164.133178 C217.889876,163.932151 218.077647,163.420672 218.731336,163.139725 L341.642903,109.746733 C342.661667,109.308881 344.289331,109.36215 345.274915,109.863943 L362.566228,118.477813 C362.951362,118.673897 363.350428,119.096792 363.350428,119.387825 L363.350428,120.391084 C363.350428,120.669773 363.211674,120.842896 362.905053,120.972536 L239.401952,174.386925 C238.380323,174.818868 236.755234,174.755788 235.769689,174.244723 L218.291146,165.537741 Z"></path>
                            <path d="M348.10215,109.355235 C348.007933,109.276286 347.700879,109.142798 347.700879,108.953931 C347.700879,108.502072 347.700879,108.151699 347.700879,107.950672 C347.700879,107.749645 347.88865,107.238166 348.542339,106.957219 L373.744542,96.3030619 C374.763306,95.8652096 376.39097,95.9184788 377.376554,96.4202722 L394.868503,104.632838 C395.253636,104.828923 395.652703,105.251817 395.652703,105.542851 L395.652703,106.54611 C395.652703,106.824798 395.513949,106.997922 395.207328,107.127561 L369.212955,118.204419 C368.191327,118.636362 366.566238,118.573282 365.580693,118.062217 L348.10215,109.355235 Z"></path>
                            <path d="M380.003154,95.3096084 C379.908937,95.2306592 379.601883,95.0971712 379.601883,94.9083048 C379.601883,94.456446 379.601883,94.1060729 379.601883,93.9050457 C379.601883,93.7040185 379.789654,93.1925397 380.443343,92.9115922 L399.225218,84.8659089 C400.243982,84.4280566 401.871646,84.4813258 402.85723,84.9831192 L420.349179,93.1956855 C420.734313,93.3917697 421.133379,93.8146639 421.133379,94.1056975 L421.133379,95.1089566 C421.133379,95.3876454 420.994625,95.5607686 420.688004,95.6904078 L401.113959,104.158792 C400.092331,104.590736 398.467242,104.527656 397.481697,104.01659 L380.003154,95.3096084 Z"></path>
                            <path d="M405.48383,84.273759 C405.389613,84.1948098 405.082559,84.0613218 405.082559,83.8724554 C405.082559,83.4205966 405.082559,83.0702235 405.082559,82.8691963 C405.082559,82.6681692 405.27033,82.1566903 405.924019,81.8757428 L424.705894,73.8300595 C425.724659,73.3922072 427.352322,73.4454764 428.337906,73.9472698 L445.829855,82.1598361 C446.214989,82.3559203 446.614055,82.7788145 446.614055,83.0698481 L446.614055,84.0731072 C446.614055,84.351796 446.475301,84.5249192 446.16868,84.6545585 L426.594635,93.1229426 C425.573007,93.5548862 423.947918,93.4918066 422.962373,92.980741 L405.48383,84.273759 Z"></path>
                            <path d="M440.394362,78.053553 C440.394362,77.793137 442.38785,76.7390915 443.04154,76.458144 L461.422144,68.4623868 C462.440908,67.9746084 464.068572,68.0278776 465.054156,68.529671 L471.109896,71.5252903 C471.495029,71.7213745 471.894096,72.1442688 471.894096,72.4353024 L471.894096,73.0372578 C471.894096,73.3159466 471.755342,73.4890698 471.448721,73.6187091 L451.874676,82.0870932 C450.853048,82.5190369 449.227959,82.4559572 448.242414,81.9448916 L440.394362,78.053553 Z"></path>
                            <path d="M430.763871,73.2379096 C430.496357,73.0962848 430.3626,72.962517 430.3626,72.836606 C430.3626,72.3847472 430.3626,72.2350259 430.3626,72.0339987 C430.3626,71.8329716 430.550371,71.3214927 431.20406,71.0405452 L449.985935,62.7942102 C451.004699,62.3563578 452.632363,62.409627 453.617947,62.9114204 L460.87097,66.4022704 L461.008959,66.1155673 C461.249462,66.2313204 461.427693,66.4459973 461.497233,66.7036882 C462.008147,67.2305345 462.263604,67.602742 462.263604,67.8203108 L439.792457,77.6522493 L430.763871,73.2379096 Z"></path>
                            <path d="M456.043911,62.2020602 C455.949695,62.123111 455.642641,61.9896231 455.642641,61.8007566 C455.642641,61.3488978 455.642641,60.9985247 455.642641,60.7974976 C455.642641,60.5964704 455.830412,60.0849915 456.484101,59.804044 L475.265976,51.7583608 C476.28474,51.3205084 477.912404,51.3737776 478.897988,51.875571 L496.389937,60.0881373 C496.77507,60.2842215 497.174137,60.7071157 497.174137,60.9981494 L497.174137,62.0014084 C497.174137,62.2800972 497.035383,62.4532204 496.728761,62.5828597 L477.154717,71.0512439 C476.133088,71.4831875 474.507999,71.4201078 473.522454,70.9090422 L456.043911,62.2020602 Z"></path>
                            <path d="M82.4610856,201.655066 C82.3668689,201.576117 82.0598151,201.442629 82.0598151,201.253763 C82.0598151,200.801904 82.0598151,200.451531 82.0598151,200.250503 C82.0598151,200.049476 82.2475859,199.537997 82.9012753,199.25705 L135.791141,176.563785 C136.809906,176.125932 138.43757,176.179202 139.423154,176.680995 L156.714467,185.696169 C157.099601,185.892253 157.498667,186.315147 157.498667,186.606181 L157.498667,187.60944 C157.498667,187.888128 157.359913,188.061252 157.053292,188.190891 L103.571891,210.905553 C102.550263,211.337497 100.925174,211.274417 99.9396286,210.763352 L82.4610856,201.655066 Z" opacity="0.752740205"></path>
                            <path d="M142.250389,175.971635 C142.156172,175.892686 141.849118,175.759198 141.849118,175.570331 C141.849118,175.118472 141.849118,174.768099 141.849118,174.567072 C141.849118,174.366045 142.036889,173.854566 142.690578,173.573619 L162.274994,165.527935 C163.293758,165.090083 164.921422,165.143352 165.907006,165.645146 L183.19832,174.058364 C183.583453,174.254448 183.982519,174.677342 183.982519,174.968376 L183.982519,175.971635 C183.982519,176.250324 183.843766,176.423447 183.537144,176.553086 L163.361194,185.222122 C162.339566,185.654066 160.714477,185.590986 159.728932,185.07992 L142.250389,175.971635 Z"></path>
                            <path d="M168.533606,164.534482 C168.439389,164.455533 168.132335,164.322045 168.132335,164.133178 C168.132335,163.681319 168.132335,163.330946 168.132335,163.129919 C168.132335,162.928892 168.320106,162.417413 168.973795,162.136466 L188.558211,154.090782 C189.576975,153.65293 191.204639,153.706199 192.190223,154.207993 L209.481537,162.621211 C209.86667,162.817295 210.265737,163.240189 210.265737,163.531223 L210.265737,164.534482 C210.265737,164.813171 210.126983,164.986294 209.820361,165.115933 L189.644411,173.784969 C188.622783,174.216913 186.997694,174.153833 186.012149,173.642767 L168.533606,164.534482 Z"></path>
                            <path d="M194.616187,153.297981 C194.521971,153.219031 194.214917,153.085543 194.214917,152.896677 C194.214917,152.444818 194.214917,152.094445 194.214917,151.893418 C194.214917,151.692391 194.402688,151.180912 195.056377,150.899964 L214.640793,142.854281 C215.659557,142.416429 217.287221,142.469698 218.272805,142.971491 L235.564118,151.38471 C235.949252,151.580794 236.348318,152.003688 236.348318,152.294722 L236.348318,153.297981 C236.348318,153.576669 236.209565,153.749793 235.902943,153.879432 L215.726993,162.548468 C214.705364,162.980411 213.080275,162.917332 212.09473,162.406266 L194.616187,153.297981 Z"></path>
                            <path d="M220.899404,142.061479 C220.805188,141.98253 220.498134,141.849042 220.498134,141.660176 C220.498134,141.208317 220.498134,140.857944 220.498134,140.656917 C220.498134,140.45589 220.685905,139.944411 221.339594,139.663463 L240.92401,131.417128 C241.942774,130.979276 243.570438,131.032545 244.556022,131.534338 L261.24543,140.34886 C261.630563,140.544944 262.02963,140.967839 262.02963,141.258872 L262.02963,142.262131 C262.02963,142.54082 261.890876,142.713943 261.584254,142.843583 L242.01021,151.111315 C240.988581,151.543258 239.363493,151.480179 238.377947,150.969113 L220.899404,142.061479 Z"></path>
                            <path d="M246.981986,130.824978 C246.88777,130.746029 246.580716,130.612541 246.580716,130.423675 C246.580716,129.971816 246.580716,129.621443 246.580716,129.420416 C246.580716,129.219388 246.768487,128.70791 247.422176,128.426962 L266.805956,120.381279 C267.824721,119.943426 269.452385,119.996696 270.437969,120.498489 L287.328012,129.112359 C287.713145,129.308443 288.112211,129.731337 288.112211,130.022371 L288.112211,131.02563 C288.112211,131.304319 287.973458,131.477442 287.666836,131.607081 L268.092792,139.874814 C267.071163,140.306757 265.446074,140.243678 264.460529,139.732612 L246.981986,130.824978 Z"></path>
                            <path d="M272.863933,119.588477 C272.769716,119.509528 272.462662,119.37604 272.462662,119.187173 C272.462662,118.735315 272.462662,118.384942 272.462662,118.183914 C272.462662,117.982887 272.650433,117.471408 273.304123,117.190461 L292.687903,109.144778 C293.706667,108.706925 295.334331,108.760194 296.319915,109.261988 L313.209958,117.875858 C313.595092,118.071942 313.994158,118.494836 313.994158,118.78587 L313.994158,119.789129 C313.994158,120.067818 313.855404,120.240941 313.548783,120.37058 L293.974738,128.638312 C292.95311,129.070256 291.328021,129.007176 290.342476,128.496111 L272.863933,119.588477 Z"></path>
                            <path d="M298.745879,108.351976 C298.651663,108.273027 298.344609,108.139539 298.344609,107.950672 C298.344609,107.498813 298.344609,107.14844 298.344609,106.947413 C298.344609,106.746386 298.53238,106.234907 299.186069,105.95396 L318.569849,97.9082764 C319.588614,97.4704241 321.216278,97.5236933 322.201862,98.0254867 L339.091905,106.639357 C339.477038,106.835441 339.876105,107.258335 339.876105,107.549369 L339.876105,108.552628 C339.876105,108.831316 339.737351,109.00444 339.430729,109.134079 L319.856685,117.401811 C318.835056,117.833755 317.209968,117.770675 316.224422,117.25961 L298.745879,108.351976 Z"></path>
                            <path d="M324.427191,97.3161264 C324.332974,97.2371772 324.02592,97.1036893 324.02592,96.9148228 C324.02592,96.4629641 324.02592,96.3132428 324.02592,96.1122156 C324.02592,95.9111884 324.213691,95.3997096 324.867381,95.118762 L343.84989,87.2737306 C344.868655,86.8358783 346.496319,86.8891475 347.481903,87.3909409 L364.773216,95.804159 C365.15835,96.0002432 365.557416,96.4231374 365.557416,96.714171 L365.557416,97.5167782 C365.557416,97.7954671 365.418662,97.9685903 365.112041,98.0982295 L345.537996,106.365962 C344.516368,106.797906 342.891279,106.734826 341.905734,106.22376 L324.427191,97.3161264 Z"></path>
                            <path d="M350.108502,86.2802771 C350.014285,86.2013279 349.707232,86.0678399 349.707232,85.8789734 C349.707232,85.4271147 349.707232,85.2773934 349.707232,85.0763662 C349.707232,84.875339 349.895002,84.3638602 350.548692,84.0829126 L369.531202,76.2378812 C370.549966,75.8000289 372.17763,75.8532981 373.163214,76.3550915 L390.454527,84.7683096 C390.839661,84.9643938 391.238727,85.387288 391.238727,85.6783216 L391.238727,86.4809289 C391.238727,86.7596177 391.099974,86.9327409 390.793352,87.0623801 L371.219308,95.3301125 C370.197679,95.7620561 368.57259,95.6989764 367.587045,95.1879109 L350.108502,86.2802771 Z"></path>
                            <path d="M375.388543,75.2444277 C375.294326,75.1654785 374.987272,75.0319905 374.987272,74.843124 C374.987272,74.3912653 374.987272,74.241544 374.987272,74.0405168 C374.987272,73.8394896 375.175043,73.3280108 375.828733,73.0470632 L394.811242,65.2020318 C395.830007,64.7641795 397.457671,64.8174487 398.443255,65.3192421 L415.734568,73.7324602 C416.119702,73.9285444 416.518768,74.3514386 416.518768,74.6424722 L416.518768,75.4450795 C416.518768,75.7237683 416.380014,75.8968915 416.073393,76.0265307 L396.499348,84.2942631 C395.47772,84.7262067 393.852631,84.663127 392.867086,84.1520615 L375.388543,75.2444277 Z"></path>
                            <path d="M400.869219,64.4092301 C400.775002,64.3302809 400.467949,64.1967929 400.467949,64.0079265 C400.467949,63.5560677 400.467949,63.4063464 400.467949,63.2053192 C400.467949,63.0042921 400.655719,62.4928132 401.309409,62.2118657 L451.390382,40.3212078 C452.409146,39.8833554 454.03681,39.9366246 455.022394,40.438418 L472.313707,48.8516361 C472.698841,49.0477203 473.097907,49.4706146 473.097907,49.7616482 L473.097907,50.5642554 C473.097907,50.8429442 472.959153,51.0160674 472.652532,51.1457067 L421.980024,73.0577619 C420.958396,73.4897055 419.333307,73.4266258 418.347762,72.9155603 L400.869219,64.4092301 Z"></path>
                            <path d="M59.1873972,189.415306 C59.0931805,189.336357 58.7861267,189.202869 58.7861267,189.014002 C58.7861267,188.562144 58.7861267,188.21177 58.7861267,188.010743 C58.7861267,187.809716 58.9738976,187.298237 59.6275869,187.01729 L98.8742564,170.343579 C99.893021,169.905726 101.520685,169.958996 102.506269,170.460789 L119.396312,179.074659 C119.781445,179.270743 120.180512,179.693637 120.180512,179.984671 L120.180512,180.98793 C120.180512,181.266619 120.041758,181.439742 119.735136,181.569381 L80.2982026,198.665793 C79.2765742,199.097737 77.6514852,199.034657 76.6659402,198.523592 L59.1873972,189.415306 Z"></path>
                            <path d="M105.534139,169.550777 C105.439922,169.471828 105.132868,169.33834 105.132868,169.149473 C105.132868,168.697615 105.132868,168.347242 105.132868,168.146214 C105.132868,167.945187 105.320639,167.433708 105.974328,167.152761 L125.558744,159.107078 C126.577509,158.669225 128.205172,158.722494 129.190757,159.224288 L146.48207,167.637506 C146.867203,167.83359 147.26627,168.256484 147.26627,168.547518 L147.26627,169.550777 C147.26627,169.829466 147.127516,170.002589 146.820894,170.132228 L126.644944,178.801264 C125.623316,179.233208 123.998227,179.170128 123.012682,178.659063 L105.534139,169.550777 Z"></path>
                            <path d="M131.817356,158.113624 C131.723139,158.034675 131.416085,157.901187 131.416085,157.71232 C131.416085,157.260462 131.416085,156.910089 131.416085,156.709061 C131.416085,156.508034 131.603856,155.996555 132.257546,155.715608 L151.841961,147.669925 C152.860726,147.232072 154.488389,147.285341 155.473974,147.787135 L172.765287,156.200353 C173.15042,156.396437 173.549487,156.819331 173.549487,157.110365 L173.549487,158.113624 C173.549487,158.392313 173.410733,158.565436 173.104112,158.695075 L152.928161,167.364111 C151.906533,167.796055 150.281444,167.732975 149.295899,167.22191 L131.817356,158.113624 Z"></path>
                            <path d="M158.100573,146.676471 C158.006356,146.597522 157.699302,146.464034 157.699302,146.275167 C157.699302,145.823309 157.699302,145.472936 157.699302,145.271908 C157.699302,145.070881 157.887073,144.559402 158.540763,144.278455 L178.125178,136.232772 C179.143943,135.794919 180.771606,135.848188 181.757191,136.349982 L199.048504,144.7632 C199.433638,144.959284 199.832704,145.382178 199.832704,145.673212 L199.832704,146.676471 C199.832704,146.95516 199.69395,147.128283 199.387329,147.257922 L179.211378,155.926958 C178.18975,156.358902 176.564661,156.295822 175.579116,155.784757 L158.100573,146.676471 Z"></path>
                            <path d="M184.584425,135.640622 C184.490208,135.561672 184.183155,135.428184 184.183155,135.239318 C184.183155,134.787459 184.183155,134.437086 184.183155,134.236059 C184.183155,134.035032 184.370926,133.523553 185.024615,133.242605 L204.60903,124.99627 C205.627795,124.558418 207.255459,124.611687 208.241043,125.113481 L224.93045,133.928002 C225.315584,134.124087 225.71465,134.546981 225.71465,134.838014 L225.71465,135.841273 C225.71465,136.119962 225.575897,136.293085 225.269275,136.422725 L205.695231,144.690457 C204.673602,145.122401 203.048513,145.059321 202.062968,144.548255 L184.584425,135.640622 Z"></path>
                            <path d="M210.667007,124.40412 C210.57279,124.325171 210.265737,124.191683 210.265737,124.002817 C210.265737,123.550958 210.265737,123.200585 210.265737,122.999558 C210.265737,122.798531 210.453507,122.287052 211.107197,122.006104 L230.490977,113.960421 C231.509742,113.522569 233.137405,113.575838 234.12299,114.077631 L251.013032,122.691501 C251.398166,122.887585 251.797232,123.31048 251.797232,123.601513 L251.797232,124.604772 C251.797232,124.883461 251.658478,125.056584 251.351857,125.186223 L231.777812,133.453956 C230.756184,133.885899 229.131095,133.82282 228.14555,133.311754 L210.667007,124.40412 Z"></path>
                            <path d="M236.548954,113.167619 C236.454737,113.08867 236.147683,112.955182 236.147683,112.766316 C236.147683,112.314457 236.147683,111.964084 236.147683,111.763057 C236.147683,111.562029 236.335454,111.050551 236.989143,110.769603 L256.372924,102.72392 C257.391688,102.286067 259.019352,102.339337 260.004936,102.84113 L276.894979,111.455 C277.280113,111.651084 277.679179,112.073978 277.679179,112.365012 L277.679179,113.368271 C277.679179,113.64696 277.540425,113.820083 277.233804,113.949722 L257.659759,122.217455 C256.638131,122.649398 255.013042,122.586319 254.027497,122.075253 L236.548954,113.167619 Z"></path>
                            <path d="M262.4309,102.13177 C262.336683,102.052821 262.02963,101.919333 262.02963,101.730466 C262.02963,101.278607 262.02963,100.928234 262.02963,100.727207 C262.02963,100.52618 262.217401,100.014701 262.87109,99.7337536 L281.8536,91.8887222 C282.872364,91.4508699 284.500028,91.504139 285.485612,92.0059325 L302.776925,100.419151 C303.162059,100.615235 303.561125,101.038129 303.561125,101.329163 L303.561125,102.332422 C303.561125,102.61111 303.422372,102.784234 303.11575,102.913873 L283.541706,111.181605 C282.520077,111.613549 280.894988,111.550469 279.909443,111.039404 L262.4309,102.13177 Z"></path>
                            <path d="M288.112211,90.8952686 C288.017995,90.8163194 287.710941,90.6828315 287.710941,90.493965 C287.710941,90.0421062 287.710941,89.8923849 287.710941,89.6913578 C287.710941,89.4903306 287.898712,88.9788518 288.552401,88.6979042 L307.534911,80.8528728 C308.553676,80.4150205 310.181339,80.4682896 311.166924,80.9700831 L328.458237,89.3833012 C328.84337,89.5793854 329.242437,90.0022796 329.242437,90.2933132 L329.242437,91.0959204 C329.242437,91.3746092 329.103683,91.5477324 328.797061,91.6773717 L309.223017,99.9451041 C308.201388,100.377048 306.5763,100.313968 305.590754,99.8029025 L288.112211,90.8952686 Z"></path>
                            <path d="M313.793523,79.8594192 C313.699306,79.78047 313.392252,79.6469821 313.392252,79.4581156 C313.392252,79.0062568 313.392252,78.8565356 313.392252,78.6555084 C313.392252,78.4544812 313.580023,77.9430024 314.233713,77.6620548 L333.216222,69.8170234 C334.234987,69.3791711 335.862651,69.4324403 336.848235,69.9342337 L354.139548,78.3474518 C354.524682,78.543536 354.923748,78.9664302 354.923748,79.2574638 L354.923748,80.060071 C354.923748,80.3387599 354.784994,80.511883 354.478373,80.6415223 L334.904328,88.9092547 C333.8827,89.3411983 332.257611,89.2781186 331.272066,88.7670531 L313.793523,79.8594192 Z"></path>
                            <path d="M339.274199,69.0242216 C339.179982,68.9452724 338.872928,68.8117845 338.872928,68.622918 C338.872928,68.1710593 338.872928,68.021338 338.872928,67.8203108 C338.872928,67.6192836 339.060699,67.1078048 339.714389,66.8268572 L358.696898,58.9818258 C359.715663,58.5439735 361.343327,58.5972427 362.328911,59.0990361 L379.620224,67.5122542 C380.005358,67.7083384 380.404424,68.1312326 380.404424,68.4222662 L380.404424,69.2248734 C380.404424,69.5035623 380.26567,69.6766855 379.959049,69.8063247 L360.385004,78.0740571 C359.363376,78.5060007 357.738287,78.442921 356.752742,77.9318555 L339.274199,69.0242216 Z"></path>
                            <path d="M364.754875,57.9883723 C364.660658,57.909423 364.353605,57.7759351 364.353605,57.5870686 C364.353605,57.1352099 364.353605,56.9854886 364.353605,56.7844614 C364.353605,56.5834342 364.541375,56.0719554 365.195065,55.7910078 L384.177575,47.9459764 C385.196339,47.5081241 386.824003,47.5613933 387.809587,48.0631867 L405.1009,56.4764048 C405.486034,56.672489 405.8851,57.0953832 405.8851,57.3864168 L405.8851,58.1890241 C405.8851,58.4677129 405.746346,58.6408361 405.439725,58.7704753 L385.86568,67.0382077 C384.844052,67.4701513 383.218963,67.4070716 382.233418,66.8960061 L364.754875,57.9883723 Z"></path>
                            <path d="M390.235551,47.3538265 C390.141334,47.2748773 389.834281,47.1413893 389.834281,46.9525229 C389.834281,46.5006641 389.834281,46.3509428 389.834281,46.1499156 C389.834281,45.9488885 390.022051,45.4374096 390.675741,45.1564621 L427.916058,29.0847066 C428.934822,28.6468542 430.562486,28.7001234 431.54807,29.2019168 L448.638748,37.2138313 C449.023882,37.4099155 449.422948,37.8328097 449.422948,38.1238433 L449.422948,38.9264506 C449.422948,39.2051394 449.284195,39.3782626 448.977573,39.5079019 L411.346356,56.0023583 C410.324728,56.4343019 408.699639,56.3712222 407.714094,55.8601567 L390.235551,47.3538265 Z"></path>
                            <path d="M35.7130736,177.175546 C35.6188568,177.096596 35.3118031,176.963109 35.3118031,176.774242 C35.3118031,176.322383 35.3118031,175.97201 35.3118031,175.770983 C35.3118031,175.569956 35.4995739,175.058477 36.1532633,174.777529 L69.3808755,161.113596 C70.39964,160.675743 72.0273037,160.729012 73.012888,161.230806 L89.9029308,169.844676 C90.2880644,170.04076 90.6871306,170.463654 90.6871306,170.754688 L90.6871306,171.757947 C90.6871306,172.036636 90.5483768,172.209759 90.2417555,172.339398 L56.823879,186.426033 C55.8022505,186.857977 54.1771616,186.794897 53.1916166,186.283831 L35.7130736,177.175546 Z"></path>
                            <path d="M75.6394873,160.320794 C75.5452705,160.241845 75.2382168,160.108357 75.2382168,159.91949 C75.2382168,159.467631 75.2382168,159.117258 75.2382168,158.916231 C75.2382168,158.715204 75.4259876,158.203725 76.079677,157.922778 L95.6640925,149.877094 C96.6828571,149.439242 98.3105208,149.492511 99.2961051,149.994305 L116.587418,158.407523 C116.972552,158.603607 117.371618,159.026501 117.371618,159.317535 L117.371618,160.320794 C117.371618,160.599483 117.232864,160.772606 116.926243,160.902245 L96.7502927,169.571281 C95.7286643,170.003225 94.1035753,169.940145 93.1180303,169.42908 L75.6394873,160.320794 Z"></path>
                            <path d="M101.922704,148.883641 C101.828488,148.804692 101.521434,148.671204 101.521434,148.482337 C101.521434,148.030478 101.521434,147.680105 101.521434,147.479078 C101.521434,147.278051 101.709205,146.766572 102.362894,146.485625 L121.94731,138.439941 C122.966074,138.002089 124.593738,138.055358 125.579322,138.557152 L142.870635,146.97037 C143.255769,147.166454 143.654835,147.589348 143.654835,147.880382 L143.654835,148.883641 C143.654835,149.16233 143.516081,149.335453 143.20946,149.465092 L123.03351,158.134128 C122.011881,158.566072 120.386792,158.502992 119.401247,157.991927 L101.922704,148.883641 Z"></path>
                            <path d="M128.406557,137.64714 C128.31234,137.56819 128.005286,137.434703 128.005286,137.245836 C128.005286,136.793977 128.005286,136.443604 128.005286,136.242577 C128.005286,136.04155 128.193057,135.530071 128.846746,135.249123 L148.230527,127.002788 C149.249291,126.564936 150.876955,126.618205 151.862539,127.119999 L168.953217,135.733869 C169.338351,135.929953 169.737417,136.352847 169.737417,136.643881 L169.737417,137.64714 C169.737417,137.925828 169.598663,138.098952 169.292042,138.228591 L149.316727,146.696975 C148.295098,147.128919 146.670009,147.065839 145.684464,146.554774 L128.406557,137.64714 Z"></path>
                            <path d="M154.489138,126.209987 C154.394922,126.131037 154.087868,125.99755 154.087868,125.808683 C154.087868,125.356824 154.087868,125.006451 154.087868,124.805424 C154.087868,124.604397 154.275639,124.092918 154.929328,123.81197 L174.513744,115.766287 C175.532508,115.328435 177.160172,115.381704 178.145756,115.883498 L195.43707,124.296716 C195.822203,124.4928 196.221269,124.915694 196.221269,125.206728 L196.221269,126.209987 C196.221269,126.488675 196.082516,126.661799 195.775894,126.791438 L175.599944,135.460474 C174.578315,135.892418 172.953227,135.829338 171.967681,135.318272 L154.489138,126.209987 Z"></path>
                            <path d="M180.57172,115.174137 C180.477504,115.095188 180.17045,114.9617 180.17045,114.772834 C180.17045,114.320975 180.17045,113.970602 180.17045,113.769575 C180.17045,113.568547 180.358221,113.057069 181.01191,112.776121 L200.596326,104.730438 C201.61509,104.292586 203.242754,104.345855 204.228338,104.847648 L220.917746,113.461518 C221.302879,113.657602 221.701945,114.080496 221.701945,114.37153 L221.701945,115.374789 C221.701945,115.653478 221.563192,115.826601 221.25657,115.95624 L201.682526,124.223973 C200.660897,124.655916 199.035808,124.592837 198.050263,124.081771 L180.57172,115.174137 Z"></path>
                            <path d="M206.654302,104.138288 C206.560085,104.059339 206.253032,103.925851 206.253032,103.736984 C206.253032,103.285125 206.253032,102.934752 206.253032,102.733725 C206.253032,102.532698 206.440802,102.021219 207.094492,101.740272 L226.478272,93.6945884 C227.497037,93.2567361 229.1247,93.3100053 230.110285,93.8117987 L247.000327,102.425669 C247.385461,102.621753 247.784527,103.044647 247.784527,103.335681 L247.784527,104.33894 C247.784527,104.617629 247.645774,104.790752 247.339152,104.920391 L227.765108,113.188123 C226.743479,113.620067 225.11839,113.556987 224.132845,113.045922 L206.654302,104.138288 Z"></path>
                            <path d="M232.536249,92.9017867 C232.442032,92.8228375 232.134978,92.6893495 232.134978,92.5004831 C232.134978,92.0486243 232.134978,91.6982512 232.134978,91.497224 C232.134978,91.2961969 232.322749,90.784718 232.976438,90.5037705 L252.360219,82.6587391 C253.378983,82.2208867 255.006647,82.2741559 255.992231,82.7759493 L272.681639,91.3898192 C273.066772,91.5859034 273.465839,92.0087977 273.465839,92.2998313 L273.465839,93.3030903 C273.465839,93.5817791 273.327085,93.7549023 273.020463,93.8845416 L253.647054,101.951622 C252.625426,102.383566 251.000337,102.320486 250.014792,101.809421 L232.536249,92.9017867 Z"></path>
                            <path d="M258.418195,81.8659373 C258.323979,81.7869881 258.016925,81.6535001 258.016925,81.4646337 C258.016925,81.0127749 258.016925,80.6624018 258.016925,80.4613746 C258.016925,80.2603475 258.204696,79.7488686 258.858385,79.4679211 L277.840895,71.8235415 C278.859659,71.3856892 280.487323,71.4389583 281.472907,71.9407518 L298.764221,80.153318 C299.149354,80.3494022 299.54842,80.7722965 299.54842,81.0633301 L299.54842,82.0665891 C299.54842,82.3452779 299.409667,82.5184011 299.103045,82.6480404 L279.529001,90.9157728 C278.507372,91.3477164 276.882283,91.2846367 275.896738,90.7735711 L258.418195,81.8659373 Z"></path>
                            <path d="M284.099507,71.0307397 C284.00529,70.9517905 283.698236,70.8183026 283.698236,70.6294361 C283.698236,70.1775773 283.698236,70.027856 283.698236,69.8268289 C283.698236,69.6258017 283.886007,69.1143229 284.539696,68.8333753 L303.522206,60.9883439 C304.540971,60.5504916 306.168634,60.6037607 307.154219,61.1055542 L324.445532,69.5187723 C324.830666,69.7148565 325.229732,70.1377507 325.229732,70.4287843 L325.229732,71.2313915 C325.229732,71.5100803 325.090978,71.6832035 324.784357,71.8128428 L305.210312,79.8799234 C304.188684,80.311867 302.563595,80.2487873 301.57805,79.7377218 L284.099507,71.0307397 Z"></path>
                            <path d="M309.580183,59.9948903 C309.485966,59.9159411 309.178912,59.7824532 309.178912,59.5935867 C309.178912,59.1417279 309.178912,58.9920067 309.178912,58.7909795 C309.178912,58.5899523 309.366683,58.0784735 310.020372,57.7975259 L329.002882,50.1531463 C330.021647,49.715294 331.64931,49.7685632 332.634895,50.2703566 L349.725573,58.6835747 C350.110706,58.8796589 350.509773,59.3025531 350.509773,59.5935867 L350.509773,60.3961939 C350.509773,60.6748828 350.371019,60.848006 350.064397,60.9776452 L330.690988,69.0447258 C329.66936,69.4766694 328.044271,69.4135897 327.058726,68.9025242 L309.580183,59.9948903 Z"></path>
                            <path d="M335.060859,49.1596927 C334.966642,49.0807435 334.659588,48.9472556 334.659588,48.7583891 C334.659588,48.3065304 334.659588,48.1568091 334.659588,47.9557819 C334.659588,47.7547547 334.847359,47.2432759 335.501049,46.9623283 L354.483558,39.1172969 C355.502323,38.6794446 357.129987,38.7327138 358.115571,39.2345072 L375.005614,47.6477253 C375.390747,47.8438095 375.789813,48.2667037 375.789813,48.5577373 L375.789813,49.3603445 C375.789813,49.6390334 375.65106,49.8121566 375.344438,49.9417958 L356.171664,58.2095282 C355.150036,58.6414718 353.524947,58.5783921 352.539402,58.0673266 L335.060859,49.1596927 Z"></path>
                            <path d="M360.3409,38.525147 C360.246683,38.4461978 359.939629,38.3127098 359.939629,38.1238433 C359.939629,37.6719846 359.939629,37.5222633 359.939629,37.3212361 C359.939629,37.1202089 360.1274,36.6087301 360.781089,36.3277826 L379.362329,28.4827511 C380.381093,28.0448988 382.008757,28.098168 382.994341,28.5999614 L400.085019,36.8125277 C400.470153,37.0086119 400.869219,37.4315061 400.869219,37.7225397 L400.869219,38.525147 C400.869219,38.8038358 400.730465,38.976959 400.423844,39.1065982 L381.451705,47.1736788 C380.430077,47.6056224 378.804988,47.5425427 377.819443,47.0314772 L360.3409,38.525147 Z"></path>
                            <path d="M385.62094,27.6899494 C385.526724,27.6110002 385.21967,27.4775122 385.21967,27.2886458 C385.21967,26.836787 385.21967,26.6870657 385.21967,26.4860385 C385.21967,26.2850114 385.407441,25.7735325 386.06113,25.492585 L404.642369,17.6475536 C405.661134,17.2097012 407.288798,17.2629704 408.274382,17.7647638 L425.565695,25.9773301 C425.950829,26.1734143 426.349895,26.5963085 426.349895,26.8873422 L426.349895,27.6899494 C426.349895,27.9686382 426.211141,28.1417614 425.90452,28.2919048 L406.731746,36.3384812 C405.710117,36.7704248 404.085028,36.7073451 403.099483,36.1962796 L385.62094,27.6899494 Z"></path>
                            <path d="M12.4393852,165.136437 C12.3451684,165.057488 12.0381147,164.924 12.0381147,164.735134 C12.0381147,164.283275 12.0381147,163.932902 12.0381147,163.731875 C12.0381147,163.530847 12.2258855,163.019369 12.8795749,162.738421 L33.0658961,154.692738 C34.0846607,154.254885 35.7123244,154.308155 36.6979087,154.809948 L53.5879515,163.223166 C53.9730851,163.41925 54.3721513,163.842145 54.3721513,164.133178 L54.3721513,165.136437 C54.3721513,165.415126 54.2333975,165.588249 53.9267761,165.717889 L33.5501906,174.386925 C32.5285622,174.818868 30.9034732,174.755788 29.9179282,174.244723 L12.4393852,165.136437 Z"></path>
                            <path d="M38.9232375,153.899936 C38.8290208,153.820987 38.521967,153.687499 38.521967,153.498632 C38.521967,153.046774 38.521967,152.696401 38.521967,152.495373 C38.521967,152.294346 38.7097378,151.782867 39.3634272,151.50192 L58.9478427,143.456237 C59.9666073,143.018384 61.594271,143.071653 62.5798553,143.573447 L79.8711685,152.187317 C80.2563022,152.383401 80.6553684,152.806295 80.6553684,153.097329 L80.6553684,153.899936 C80.6553684,154.178625 80.5166146,154.351748 80.2099932,154.481387 L60.0340429,162.949772 C59.0124145,163.381715 57.3873255,163.318635 56.4017805,162.80757 L38.9232375,153.899936 Z"></path>
                            <path d="M65.2064546,142.262131 C65.1122378,142.183182 64.8051841,142.049694 64.8051841,141.860828 C64.8051841,141.408969 64.8051841,141.058596 64.8051841,140.857569 C64.8051841,140.656541 64.9929549,140.145063 65.6466443,139.864115 L85.431695,132.219735 C86.4504596,131.781883 88.0781233,131.835152 89.0637076,132.336946 L106.154386,140.549512 C106.539519,140.745596 106.938585,141.16849 106.938585,141.459524 L106.938585,142.462783 C106.938585,142.741472 106.799832,142.914595 106.49321,143.044234 L86.31726,151.71327 C85.2956315,152.145214 83.6705426,152.082134 82.6849975,151.571069 L65.2064546,142.262131 Z"></path>
                            <path d="M91.8909421,131.226282 C91.7967254,131.147333 91.4896716,131.013845 91.4896716,130.824978 C91.4896716,130.373119 91.4896716,130.022746 91.4896716,129.821719 C91.4896716,129.620692 91.6774425,129.109213 92.3311318,128.828266 L111.915547,120.983234 C112.934312,120.545382 114.561976,120.598651 115.54756,121.100444 L132.437603,129.313011 C132.822736,129.509095 133.221803,129.931989 133.221803,130.223023 L133.221803,131.226282 C133.221803,131.504971 133.083049,131.678094 132.776427,131.807733 L112.801112,140.276117 C111.779484,140.708061 110.154395,140.644981 109.16885,140.133916 L91.8909421,131.226282 Z"></path>
                            <path d="M117.973524,119.789129 C117.879307,119.71018 117.572253,119.576692 117.572253,119.387825 C117.572253,118.935966 117.572253,118.585593 117.572253,118.384566 C117.572253,118.183539 117.760024,117.67206 118.413714,117.391113 L137.998129,109.746733 C139.016894,109.308881 140.644557,109.36215 141.630142,109.863943 L158.921455,117.875858 C159.306589,118.071942 159.705655,118.494836 159.705655,118.78587 L159.705655,119.789129 C159.705655,120.067818 159.566901,120.240941 159.26028,120.37058 L139.084329,129.039616 C138.062701,129.47156 136.437612,129.40848 135.452067,128.897414 L117.973524,119.789129 Z"></path>
                            <path d="M144.256741,108.753279 C144.162524,108.67433 143.855471,108.540842 143.855471,108.351976 C143.855471,107.900117 143.855471,107.549744 143.855471,107.348717 C143.855471,107.14769 144.043241,106.636211 144.696931,106.355263 L164.281346,98.5102318 C165.300111,98.0723795 166.927774,98.1256487 167.913359,98.6274421 L184.602766,107.04066 C184.9879,107.236744 185.386966,107.659639 185.386966,107.950672 L185.386966,108.953931 C185.386966,109.23262 185.248212,109.405743 184.941591,109.535383 L165.367546,117.803115 C164.345918,118.235059 162.720829,118.171979 161.735284,117.660913 L144.256741,108.753279 Z"></path>
                            <path d="M170.339323,97.7174301 C170.245106,97.6384809 169.938052,97.5049929 169.938052,97.3161264 C169.938052,96.8642677 169.938052,96.3132428 169.938052,96.1122156 C169.938052,95.9111884 170.125823,95.3997096 170.779513,95.118762 L190.163293,87.2737306 C191.182057,86.8358783 192.809721,86.8891475 193.795305,87.3909409 L210.685348,95.804159 C211.070482,96.0002432 211.469548,96.4231374 211.469548,96.714171 L211.469548,97.9180819 C211.469548,98.1967707 211.330794,98.3698939 211.024173,98.4995331 L191.450128,106.767266 C190.4285,107.199209 188.803411,107.136129 187.817866,106.625064 L170.339323,97.7174301 Z"></path>
                            <path d="M196.221269,86.6815807 C196.127053,86.6026315 195.819999,86.4691435 195.819999,86.2802771 C195.819999,85.8284183 195.819999,85.678697 195.819999,85.277018 C195.819999,84.875339 196.103581,84.6110502 196.718351,84.3202972 L216.045239,76.6391848 C217.064004,76.2013325 218.691668,76.2546017 219.677252,76.7563951 L236.632225,85.0572615 C237.017359,85.2533457 237.351495,85.5879398 237.351495,85.8789734 L237.351495,86.6815807 C237.351495,86.9602695 237.212741,87.1333927 236.906119,87.2630319 L217.332075,95.5307643 C216.310446,95.9627079 214.685357,95.8996282 213.699812,95.3885627 L196.221269,86.6815807 Z"></path>
                            <path d="M222.103216,75.6457313 C222.008999,75.5667821 221.701945,75.4332941 221.701945,75.2444277 C221.701945,74.7925689 221.701945,74.5492255 221.701945,74.1408427 C221.701945,73.73246 221.895274,73.4354811 222.548963,73.1545336 L241.525915,65.6033355 C242.54468,65.1654831 244.172344,65.2187523 245.157928,65.7205457 L262.449241,73.7324602 C262.834375,73.9285444 263.233441,74.3514386 263.233441,74.6424722 L263.233441,75.8463831 C263.233441,76.1250719 263.094687,76.2981951 262.788066,76.4278344 L243.214021,84.6955667 C242.192393,85.1275103 240.567304,85.0644307 239.581759,84.5533651 L222.103216,75.6457313 Z"></path>
                            <path d="M247.784527,64.8105337 C247.690311,64.7315845 247.383257,64.5980965 247.383257,64.4092301 C247.383257,63.9573713 247.383257,63.80765 247.383257,63.6066228 C247.383257,63.4055957 247.571028,62.8941168 248.224717,62.6131693 L267.207227,54.7681379 C268.225991,54.3302855 269.853655,54.3835547 270.839239,54.8853481 L287.985541,63.0588966 C288.370675,63.2549809 288.914752,63.7168929 288.914752,64.0079265 L288.914752,64.8105337 C288.914752,65.0892225 288.775999,65.2623457 288.469377,65.391985 L268.895333,73.6597173 C267.873704,74.091661 266.248615,74.0285813 265.26307,73.5175157 L247.784527,64.8105337 Z"></path>
                            <path d="M273.465839,53.7746843 C273.371622,53.6957351 273.064568,53.5622472 273.064568,53.3733807 C273.064568,52.9215219 273.064568,52.5711488 273.064568,52.3701217 C273.064568,52.1690945 273.275459,51.7546107 273.890229,51.4638577 L292.888538,43.9329403 C293.907303,43.495088 295.534966,43.5483571 296.520551,44.0501506 L313.611229,52.4633686 C313.996362,52.6594529 314.395429,53.0823471 314.395429,53.3733807 L314.395429,54.1759879 C314.395429,54.4546767 314.256675,54.6277999 313.950053,54.7574392 L294.576644,62.8245198 C293.555016,63.2564634 291.929927,63.1933837 290.944382,62.6823181 L273.465839,53.7746843 Z"></path>
                            <path d="M298.946515,42.9394867 C298.852298,42.8605375 298.545244,42.7270496 298.545244,42.5381831 C298.545244,42.0863243 298.545244,41.9366031 298.545244,41.7355759 C298.545244,41.5345487 298.733015,41.0230699 299.386704,40.7421223 L318.369214,32.8970909 C319.387979,32.4592386 321.015642,32.5125078 322.001227,33.0143012 L338.89127,41.4275193 C339.276403,41.6236035 339.675469,42.0464977 339.675469,42.3375313 L339.675469,43.1401385 C339.675469,43.4188273 339.536716,43.5919505 339.230094,43.7215898 L320.05732,51.9893222 C319.035692,52.4212658 317.410603,52.3581861 316.425058,51.8471206 L298.946515,42.9394867 Z"></path>
                            <path d="M324.427191,32.3049409 C324.332974,32.2259917 324.02592,32.0925038 324.02592,31.9036373 C324.02592,31.4517786 324.02592,31.3020573 324.02592,31.1010301 C324.02592,30.9000029 324.213691,30.3885241 324.867381,30.1075765 L343.44862,22.4631969 C344.467384,22.0253446 346.095048,22.0786138 347.080632,22.5804072 L364.371946,30.5923217 C364.757079,30.7884059 365.156145,31.2113001 365.156145,31.5023337 L365.156145,32.3049409 C365.156145,32.5836298 365.017392,32.756753 364.71077,32.8863922 L345.537996,40.9534728 C344.516368,41.3854164 342.891279,41.3223367 341.905734,40.8112712 L324.427191,32.3049409 Z"></path>
                            <path d="M349.506596,21.4697434 C349.41238,21.3907942 349.105326,21.2573062 349.105326,21.0684397 C349.105326,20.616581 349.105326,20.4668597 349.105326,20.2658325 C349.105326,20.0648053 349.293097,19.5533265 349.946786,19.2723789 L380.967411,6.21040055 C381.986175,5.77254823 383.613839,5.82581741 384.599423,6.32761083 L401.890736,14.5401771 C402.27587,14.7362613 402.674936,15.1591555 402.674936,15.4501891 L402.674936,16.2527964 C402.674936,16.5314852 402.536182,16.7046084 402.229561,16.8547518 L370.617402,30.1182752 C369.595773,30.5502188 367.970684,30.4871391 366.985139,29.9760736 L349.506596,21.4697434 Z"></path>
                            <path d="M1.00317622,159.317535 C0.871092987,159.25074 0.601905734,159.101966 0.601905734,158.916231 C0.601905734,158.464372 0.601905738,158.314651 0.601905734,158.113624 C0.60190573,157.912597 0.789676569,157.401118 1.44336595,157.12017 L34.2697076,142.854281 C35.2884722,142.416429 36.9161359,142.469698 37.9017202,142.971491 L43.5561892,145.766459 C43.9413229,145.962543 44.3403891,146.385437 44.3403891,146.676471 L44.3403891,147.479078 C44.3403891,147.757767 44.3403891,148.103813 43.8950139,148.281685 L10.4771374,162.226986 C9.455509,162.579108 7.7332739,162.476135 6.84487502,162.12666 L1.00317622,159.317535 Z"></path>
                            <path d="M40.7289547,142.462783 C40.634738,142.383834 40.3276842,142.250346 40.3276842,142.061479 C40.3276842,141.609621 40.3276842,141.459899 40.3276842,141.258872 C40.3276842,141.057845 40.515455,140.546366 41.1691444,140.265419 L60.9541952,131.61778 C61.9729597,131.179928 63.6006234,131.233197 64.5862077,131.73499 L70.2406768,134.529958 C70.6258104,134.726042 71.2255119,135.148936 71.2255119,135.43997 L71.2255119,135.841273 C71.2255119,136.119962 71.2255119,136.466008 70.7801367,136.643881 L50.2029159,145.372234 C49.1812875,145.724356 47.4590524,145.621383 46.5706535,145.271908 L40.7289547,142.462783 Z"></path>
                            <path d="M67.212807,131.226282 C67.1185903,131.147333 66.8115365,131.013845 66.8115365,130.824978 C66.8115365,130.373119 66.8115365,130.223398 66.8115365,130.022371 C66.8115365,129.821344 66.9993073,129.309865 67.6529967,129.028917 L87.4380475,120.381279 C88.4568121,119.943426 90.0844757,119.996696 91.07006,120.498489 L96.5238938,123.20021 C97.0633552,123.48169 97.508729,123.711783 97.508729,124.002817 L97.508729,124.40412 C97.508729,124.682809 97.508729,125.028855 97.0633538,125.206728 L76.6867682,134.135733 C75.6651398,134.487855 73.9429047,134.384882 73.0545058,134.035407 L67.212807,131.226282 Z"></path>
                            <path d="M93.4960241,119.989781 C93.4018073,119.910831 93.0947536,119.777343 93.0947536,119.588477 C93.0947536,119.136618 93.0947536,118.986897 93.0947536,118.78587 C93.0947536,118.584843 93.2825244,118.073364 93.9362138,117.792416 L113.721265,109.144778 C114.740029,108.706925 116.367693,108.760194 117.353277,109.261988 L122.807111,112.16436 C123.346572,112.445841 123.791946,112.675934 123.791946,112.966967 L123.791946,113.368271 C123.791946,113.64696 123.791946,113.993005 123.346571,114.170878 L102.969985,122.899232 C101.948357,123.251354 100.226122,123.148381 99.3377229,122.798906 L93.4960241,119.989781 Z"></path>
                            <path d="M119.578606,108.953931 C119.484389,108.874982 119.177335,108.741494 119.177335,108.552628 C119.177335,108.100769 119.177335,107.951048 119.177335,107.75002 C119.177335,107.548993 119.365106,107.037514 120.018796,106.756567 L139.803846,98.30958 C140.822611,97.8717277 142.450275,97.9249969 143.435859,98.4267903 L148.889693,101.128511 C149.429154,101.409991 149.874528,101.640084 149.874528,101.931118 L149.874528,102.332422 C149.874528,102.61111 149.874528,102.957156 149.429153,103.135029 L129.052567,111.863382 C128.030939,112.215504 126.308704,112.112531 125.420305,111.763057 L119.578606,108.953931 Z"></path>
                            <path d="M145.661188,97.7174301 C145.566971,97.6384809 145.259917,97.5049929 145.259917,97.3161264 C145.259917,96.8642677 145.259917,96.7145464 145.259917,96.5135192 C145.259917,96.312492 145.447688,95.8010132 146.101377,95.5200656 L165.886428,87.0730788 C166.905193,86.6352265 168.532856,86.6884957 169.518441,87.1902891 L174.972275,89.8920096 C175.511736,90.1734903 175.95711,90.4035832 175.95711,90.6946168 L175.95711,91.2965722 C175.95711,91.575261 175.703377,91.8119671 175.511734,91.8985277 L155.135149,100.626881 C154.11352,100.979003 152.391285,100.87603 151.502887,100.526555 L145.661188,97.7174301 Z"></path>
                            <path d="M171.74377,86.6815807 C171.649553,86.6026315 171.342499,86.4691435 171.342499,86.2802771 C171.342499,85.8284183 171.342499,85.4780452 171.342499,85.277018 C171.342499,85.0759908 171.53027,84.564512 172.183959,84.2835644 L191.56774,76.0372294 C192.586504,75.5993771 194.214168,75.6526463 195.199752,76.1544397 L200.653586,78.8561602 C201.193047,79.1376409 201.638421,79.3677338 201.638421,79.6587674 L201.638421,80.2607228 C201.638421,80.5394117 201.384688,80.7761177 201.193046,80.8626783 L181.217731,89.5910319 C180.196102,89.9431537 178.473867,89.8401806 177.585468,89.490706 L171.74377,86.6815807 Z"></path>
                            <path d="M197.625716,75.6457313 C197.531499,75.5667821 197.224446,75.4332941 197.224446,75.2444277 C197.224446,74.7925689 197.224446,74.4421958 197.224446,74.2411686 C197.224446,74.0401414 197.412216,73.5286626 198.065906,73.2477151 L217.449686,65.00138 C218.468451,64.5635277 220.096114,64.6167969 221.081699,65.1185903 L226.535532,67.8203108 C227.074994,68.1017915 227.520368,68.3318844 227.520368,68.622918 L227.520368,69.2248734 C227.520368,69.5035623 227.266635,69.7402683 227.074992,69.8268289 L207.099677,78.5551825 C206.078049,78.9073043 204.355814,78.8043312 203.467415,78.4548566 L197.625716,75.6457313 Z"></path>
                            <path d="M223.507663,64.7156933 C223.413446,64.6367441 223.106392,64.5032561 223.106392,64.3143897 C223.106392,63.8625309 223.106392,63.5121578 223.106392,63.3111306 C223.106392,63.1101035 223.294163,62.5986246 223.947852,62.3176771 L242.930362,54.2719939 C243.949127,53.8341415 245.57679,53.8874107 246.562375,54.3892041 L252.016209,56.8902728 C252.55567,57.1717535 253.001044,57.4018464 253.001044,57.69288 L253.001044,58.4954873 C253.001044,58.7741761 252.747311,59.0108821 252.555668,59.0974427 L232.981624,67.6251445 C231.959995,67.9772663 230.23776,67.8742932 229.349361,67.5248186 L223.507663,64.7156933 Z"></path>
                            <path d="M249.188974,53.7746843 C249.094757,53.6957351 248.787704,53.5622472 248.787704,53.3733807 C248.787704,52.9215219 248.787704,52.5711488 248.787704,52.3701217 C248.787704,52.1690945 248.975474,51.6576156 249.629164,51.3766681 L268.611674,43.3309849 C269.630438,42.8931325 270.85758,42.8070742 272.16749,43.3309849 L278.281085,46.1499156 C278.609664,46.3115247 279.083625,46.5446055 279.083625,46.8356391 L279.083625,47.3538265 C279.083625,47.6325153 278.829892,47.8692213 278.63825,47.9557819 L258.662935,56.6841355 C257.641307,57.0362574 255.919072,56.9332842 255.030673,56.5838096 L249.188974,53.7746843 Z"></path>
                            <path d="M274.870285,42.9394867 C274.776069,42.8605375 274.469015,42.7270496 274.469015,42.5381831 C274.469015,42.0863243 274.469015,41.7359512 274.469015,41.5349241 C274.469015,41.3338969 274.656786,40.8224181 275.310475,40.5414705 L293.691079,32.6964391 C294.709844,32.2585868 296.337507,32.1112041 297.323092,32.6129976 C297.323092,32.6129976 302.977561,35.2073132 302.977561,35.2143921 C303.452628,35.4205306 304.062713,35.6891276 304.062713,36.1173253 L304.062713,36.7192807 C304.062713,37.0187888 304.062713,37.2661745 303.717656,37.421562 L284.344247,45.8489379 C283.322618,46.2010598 281.600383,46.0980867 280.711984,45.748612 L274.870285,42.9394867 Z"></path>
                            <path d="M300.150326,32.1042891 C300.056109,32.0253399 299.749056,31.891852 299.749056,31.7029855 C299.749056,31.2511267 299.749056,30.9007537 299.749056,30.6997265 C299.749056,30.4986993 299.936827,29.9872205 300.590516,29.7062729 L319.171755,21.8612415 C320.19052,21.4233892 321.818183,21.4766584 322.803768,21.9784518 L328.439896,24.6801723 C328.772884,24.8045019 329.443072,25.1917459 329.443072,25.4827795 L329.443072,26.0847349 C329.443072,26.3634237 329.189339,26.6001298 328.997697,26.6866903 L309.624287,35.0137403 C308.602659,35.3658622 306.880424,35.2628891 305.992025,34.9134144 L300.150326,32.1042891 Z"></path>
                            <path d="M325.631002,21.4697434 C325.536786,21.3907942 325.229732,21.2573062 325.229732,21.0684397 C325.229732,20.616581 325.229732,20.2662079 325.229732,20.0651807 C325.229732,19.8641535 325.417503,19.3526747 326.071192,19.0717271 L344.652431,11.2266957 C345.671196,10.7888434 347.29886,10.8421126 348.284444,11.343906 L353.920572,14.0456265 C354.25356,14.1699561 354.923748,14.5572001 354.923748,14.8482337 L354.923748,15.4501891 C354.923748,15.728878 354.670015,15.965584 354.478373,16.0521446 L335.104963,24.3791946 C334.083335,24.7313164 332.3611,24.6283433 331.472701,24.2788687 L325.631002,21.4697434 Z"></path>
                            <path d="M350.509773,10.6345458 C350.415556,10.5555966 350.108502,10.4221086 350.108502,10.2332422 C350.108502,9.78138339 350.108502,9.4310103 350.108502,9.22998313 C350.108502,9.02895595 350.296273,8.51747711 350.949962,8.23652956 L369.731837,0.391498148 C370.750601,-0.0463541748 372.378265,0.00691500133 373.363849,0.508708425 L378.999977,3.21042891 C379.332965,3.3347585 380.003154,3.72200253 380.003154,4.01303614 L380.003154,4.61499156 C380.003154,4.89368038 379.749421,5.13038643 379.557778,5.21694698 L359.983734,13.543997 C358.962105,13.8961188 357.23987,13.7931457 356.351471,13.4436711 L350.509773,10.6345458 Z"></path>
                        </g>
                    </g>
                    <g id="Charging-&amp;-Expansion" mask="url(#mask-7)">
                        <g transform="translate(1.805717, 165.537741)">
                            <mask id="mask-12" fill="white">
                                <use xlink:href="#path-11"></use>
                            </mask>
                            <use id="Mask" stroke="none" fill-opacity="0.101647418" fill="#000000" fill-rule="evenodd" transform="translate(6.328919, 4.767241) rotate(-330.000000) translate(-6.328919, -4.767241) " xlink:href="#path-11"></use>
                        </g>
                    </g>
                </g>
            </g>
        </g>
    </g>
</svg>